<svg id="mic" data-name="mic" xmlns="http://www.w3.org/2000/svg" viewBox="0 0 24.16 35.73"><defs><style>.cls-1{fill:#547dbf;}.cls-2{fill:#34a851;}.cls-3{fill:#ea4435;}.cls-4{fill:#f7c73f;}</style></defs><title>SearchX</title><rect class="cls-1" x="6.96" width="10.23" height="22.82" rx="5.12"/><path class="cls-2" d="M12.08,35.73h0a1.5,1.5,0,0,1-1.5-1.5v-6h3v6A1.5,1.5,0,0,1,12.08,35.73Z"/><path class="cls-3" d="M22.68,17.77h0a1.49,1.49,0,0,0-1.46,1.3A9.22,9.22,0,0,1,5.05,23.73h0c.48.56-1.58,2.58-2.16,2a12.16,12.16,0,0,0,21.26-6.33A1.46,1.46,0,0,0,22.68,17.77Z"/><path class="cls-4" d="M5,25.71l0,0a1.45,1.45,0,0,0,0-1.93h0a9.23,9.23,0,0,1-2.11-4.66,1.49,1.49,0,0,0-1.46-1.3A1.47,1.47,0,0,0,0,19.39a12.06,12.06,0,0,0,2.88,6.33A1.45,1.45,0,0,0,5,25.71Z"/></svg>