<svg id="searchX" data-name="searchX" xmlns="http://www.w3.org/2000/svg" viewBox="0 0 628.65 145.27"><defs><style>.cls-1{fill:#547dbf;}.cls-2{fill:#ea4435;}.cls-3{fill:#f9bc15;}.cls-4{fill:#34a851;}</style></defs><title>SearchX</title><path class="cls-1" d="M0,120.22l16.51-14.76a16.74,16.74,0,0,0,1.36,2.13,49.5,49.5,0,0,0,4.27,4.76,50.42,50.42,0,0,0,7,6,39.86,39.86,0,0,0,9.62,4.76,35.32,35.32,0,0,0,12.13,2.14q10.68,0,16.9-5.24T74,105.49a18.94,18.94,0,0,0-6.91-15,55.31,55.31,0,0,0-16.72-9.6q-9.81-3.67-19.51-8.09A43.58,43.58,0,0,1,14.27,59.43Q7.39,50.51,7.38,37.09A35.42,35.42,0,0,1,18.45,10.88Q29.52,0,47.39,0A58.42,58.42,0,0,1,62.83,2,49.51,49.51,0,0,1,75.16,7a78.66,78.66,0,0,1,8.64,5.93,37.46,37.46,0,0,1,5.54,5.14L91.09,20,75.94,34.57Q74.58,33,72.25,30.69t-9.71-6.32a30.92,30.92,0,0,0-14.76-4q-8.55,0-13.79,4.29T28.74,36.41q0,7.64,7,12.87a84.53,84.53,0,0,0,16.66,9.47L72,67.31a39.37,39.37,0,0,1,16.65,14q6.75,9.69,6.76,23.73,0,17.87-12.14,29T51.27,145.27a67.16,67.16,0,0,1-19-2.62,55,55,0,0,1-14.57-6.31,103.68,103.68,0,0,1-9.9-7.29,34.14,34.14,0,0,1-6-6.11Z"/><path class="cls-2" d="M191.91,99.62,126.85,112a23.14,23.14,0,0,0,9.13,9.68,25.5,25.5,0,0,0,13.21,3.55,23.5,23.5,0,0,0,11.65-2.82c3.36-1.87,5.63-3.79,6.8-5.73l1.94-2.72,17.48,8.94c-.26.52-.68,1.26-1.26,2.23a44.37,44.37,0,0,1-4.18,5.15,43.05,43.05,0,0,1-7.28,6.5A42.59,42.59,0,0,1,163.46,142a45.58,45.58,0,0,1-14.66,2.33q-19.81,0-32.24-12.62t-12.43-31.27q0-18.45,12.62-31.17T148,56.52q18.64,0,31.08,12.38T191.91,99.62ZM148,75.55a23.46,23.46,0,0,0-16.11,5.83q-6.6,5.82-7.58,15.53l44.86-8.57Q162.94,75.55,148,75.55Z"/><path class="cls-3" d="M266.65,142.36V136a26,26,0,0,1-2.82,2.33q-1.84,1.36-8.35,3.69a40.93,40.93,0,0,1-13.88,2.33q-17.88,0-29.91-12.33t-12-31.56q0-19.23,12-31.56T241.6,56.52a41.65,41.65,0,0,1,13.59,2.13q6.21,2.15,8.74,4.08l2.72,2.14V58.46h20v83.9Zm-6-23.79q6.8-6.7,6.8-18.16t-6.8-18.16a25.15,25.15,0,0,0-34.18,0q-6.8,6.7-6.8,18.16t6.8,18.16a25.15,25.15,0,0,0,34.18,0Z"/><path class="cls-1" d="M350.74,75.35q-12.63,0-18.64,5.25t-6,18.45v43.31h-20V58.46h20v6.41q8.34-8.36,24.66-8.35Z"/><path class="cls-4" d="M366.08,131.68q-12.42-12.63-12.42-31.27t12.42-31.27q12.44-12.63,31.08-12.62a45.15,45.15,0,0,1,16.9,3.1q7.76,3.12,11.07,6.22l3.3,2.91L416.19,84.09a16.46,16.46,0,0,0-1.94-2.42q-1.37-1.47-6.21-3.79a24,24,0,0,0-10.49-2.33,23,23,0,0,0-17.09,6.89q-6.81,6.9-6.8,18t6.8,18a23,23,0,0,0,17.09,6.9,24.33,24.33,0,0,0,10.29-2.14,20.59,20.59,0,0,0,6.6-4.27l1.75-2.14,12.24,15.34a32.16,32.16,0,0,1-3.6,3.4q-2.43,2-10.48,5.44a43.94,43.94,0,0,1-17.19,3.4Q378.52,144.3,366.08,131.68Z"/><path class="cls-2" d="M511.55,90.89v51.47h-20V92.64q0-7.38-3.3-12.24t-10.87-4.85a17.09,17.09,0,0,0-12.82,5.73q-5.44,5.73-5.44,17.77v43.31h-20V2.91h20v62q8.36-8.36,22.14-8.35a30.66,30.66,0,0,1,21.46,8.06Q511.55,72.64,511.55,90.89Z"/><path class="cls-3" d="M626.32,2.91,586,70.51l42.62,71.85H604L573.67,91.25,543.2,142.36H518.92l42.63-71.52L521.25,2.91h24.67l28,47.2,28.13-47.2Z"/></svg>